<?xml version="1.0" encoding="UTF-8"?>
<!DOCTYPE svg PUBLIC "-//W3C//DTD SVG 1.1//EN" "http://www.w3.org/Graphics/SVG/1.1/DTD/svg11.dtd">
<!-- Creator: CorelDRAW 2020 (64-Bit) -->
<svg xmlns="http://www.w3.org/2000/svg" xml:space="preserve" width="50.9228mm" height="9.5268mm" version="1.1" style="shape-rendering:geometricPrecision; text-rendering:geometricPrecision; image-rendering:optimizeQuality; fill-rule:evenodd; clip-rule:evenodd"
viewBox="0 0 453.61 84.86"
 xmlns:xlink="http://www.w3.org/1999/xlink"
 xmlns:xodm="http://www.corel.com/coreldraw/odm/2003">
 <defs>
  <style type="text/css">
   <![CDATA[
    .fil1 {fill:black;fill-rule:nonzero}
    .fil0 {fill:#060A0F;fill-rule:nonzero}
   ]]>
  </style>
 </defs>
 <g id="Capa_x0020_1">
  <metadata id="CorelCorpID_0Corel-Layer"/>
  <g id="_2406377376832">
   <g>
    <polygon class="fil0" points="68.34,56.51 84.86,39.99 64.77,19.89 34.1,19.89 34.1,27.1 61.8,27.1 74.68,39.99 68.34,46.33 "/>
    <polygon class="fil0" points="40.05,0 19.96,20.09 19.96,49.77 27.16,49.77 27.16,23.07 40.05,10.18 46.4,16.52 56.51,16.52 "/>
    <polygon class="fil0" points="57.63,35.16 57.63,61.86 44.74,74.75 38.4,68.41 28.22,68.41 44.74,84.86 64.77,64.84 64.77,35.16 "/>
    <polygon class="fil0" points="23.07,57.63 10.18,44.74 16.52,38.47 16.52,28.29 -0,44.74 20.09,64.84 49.77,64.84 49.77,57.63 "/>
   </g>
   <path class="fil1" d="M106.74 28.29c0.25,0 0.76,0.21 1.52,0.62 0.76,0.41 1.67,0.99 2.72,1.72 1.05,0.73 2.19,1.6 3.42,2.58 1.23,0.99 2.43,2.05 3.61,3.2 1.18,1.15 2.27,2.34 3.29,3.58 1.01,1.24 1.85,2.48 2.5,3.74l0 -15.43 6.69 0 0 28.28 -5.75 0c-0.68,-1.15 -1.47,-2.36 -2.37,-3.63 -0.9,-1.27 -1.87,-2.54 -2.91,-3.82 -1.04,-1.27 -2.1,-2.49 -3.2,-3.66 -1.09,-1.16 -2.15,-2.22 -3.19,-3.17 -1.04,-0.95 -2.02,-1.73 -2.93,-2.34 -0.91,-0.61 -1.72,-0.99 -2.42,-1.13l0 17.74 -6.69 0 0 -28.28 5.71 0zm34.12 14.73l0 6.02 9.73 0c0.98,0 1.85,-0.1 2.63,-0.3 0.78,-0.2 1.44,-0.56 1.99,-1.1 0.55,-0.54 0.98,-1.27 1.28,-2.2 0.3,-0.93 0.45,-2.13 0.45,-3.6l0 -5.91 -9.73 0c-0.98,0 -1.85,0.1 -2.63,0.3 -0.78,0.2 -1.44,0.56 -1.99,1.08 -0.55,0.52 -0.98,1.25 -1.28,2.18 -0.3,0.93 -0.45,2.11 -0.45,3.55zm12.7 13.55l-19.39 0 0 -14.68c0,-2.11 0.31,-4.01 0.92,-5.7 0.61,-1.68 1.4,-3.11 2.37,-4.27 0.96,-1.16 2.04,-2.06 3.23,-2.69 1.19,-0.63 2.37,-0.94 3.55,-0.94l19.39 0 0 14.68c0,2.11 -0.31,4.01 -0.92,5.7 -0.61,1.68 -1.4,3.11 -2.37,4.27 -0.96,1.16 -2.05,2.06 -3.25,2.69 -1.2,0.63 -2.38,0.94 -3.53,0.94zm42.35 -28.28l-11.61 28.28 -6.16 0 -11.76 -28.28 7.14 0 7.67 18.87 7.59 -18.87 7.14 0zm23.15 7.58l-9.51 0c-0.95,0 -1.82,0.08 -2.61,0.24 -0.79,0.16 -1.47,0.48 -2.05,0.97 -0.58,0.48 -1.03,1.16 -1.37,2.02 -0.34,0.86 -0.52,1.97 -0.55,3.33l16.08 0 0 -6.56zm-16.08 20.7l-6.69 0 0 -14.68c0,-2.11 0.26,-4.01 0.77,-5.7 0.51,-1.68 1.22,-3.11 2.12,-4.27 0.9,-1.16 1.97,-2.06 3.19,-2.69 1.23,-0.63 2.56,-0.94 3.98,-0.94l19.39 0 0 28.28 -6.69 0 0 -6.72 -16.08 0 0 6.72zm55.92 -10.43l0 -7.47 -21.98 0c0.53,-1.11 1.25,-1.86 2.16,-2.23 0.91,-0.38 2.05,-0.56 3.4,-0.56l16.42 0 0 -7.58 -19.43 0c-1.43,0 -2.76,0.31 -3.98,0.94 -1.23,0.63 -2.29,1.52 -3.18,2.69 -0.89,1.17 -1.59,2.59 -2.1,4.27 -0.51,1.68 -0.77,3.58 -0.77,5.7l0 14.68 29.46 0 0 -7.53 -22.77 0 0 -2.9 22.77 0zm32.28 -17.85l-11.61 28.28 -6.16 0 -11.76 -28.28 7.14 0 7.67 18.87 7.59 -18.87 7.14 0zm29.84 17.85l0 -7.47 -21.99 0c0.53,-1.11 1.25,-1.86 2.16,-2.23 0.91,-0.38 2.05,-0.56 3.4,-0.56l16.42 0 0 -7.58 -19.43 0c-1.43,0 -2.76,0.31 -3.98,0.94 -1.23,0.63 -2.29,1.52 -3.18,2.69 -0.89,1.17 -1.59,2.59 -2.1,4.27 -0.51,1.68 -0.77,3.58 -0.77,5.7l0 14.68 29.46 0 0 -7.53 -22.77 0 0 -2.9 22.77 0zm9.39 -17.85c0.25,0 0.76,0.21 1.52,0.62 0.76,0.41 1.67,0.99 2.72,1.72 1.05,0.73 2.19,1.6 3.42,2.58 1.23,0.99 2.43,2.05 3.61,3.2 1.18,1.15 2.27,2.34 3.29,3.58 1.02,1.24 1.85,2.48 2.5,3.74l0 -15.43 6.69 0 0 28.28 -5.75 0c-0.68,-1.15 -1.47,-2.36 -2.37,-3.63 -0.9,-1.27 -1.87,-2.54 -2.91,-3.82 -1.04,-1.27 -2.1,-2.49 -3.2,-3.66 -1.09,-1.16 -2.15,-2.22 -3.19,-3.17 -1.04,-0.95 -2.02,-1.73 -2.93,-2.34 -0.91,-0.61 -1.72,-0.99 -2.42,-1.13l0 17.74 -6.69 0 0 -28.28 5.71 0zm41.04 28.28c-0.53,0 -1.07,-0.24 -1.63,-0.73 -0.56,-0.48 -1.09,-1.1 -1.58,-1.85 -0.49,-0.75 -0.89,-1.57 -1.2,-2.45 -0.31,-0.88 -0.47,-1.69 -0.47,-2.45l0 -13.23 -8.72 0 0 -7.58 29.46 0 0 7.58 -14.06 0 0 10.48c0,0.79 0.22,1.44 0.66,1.96 0.44,0.52 0.88,0.78 1.33,0.78l4.02 0 0 7.47 -7.82 0zm26.23 -13.55l0 6.02 9.73 0c0.98,0 1.85,-0.1 2.63,-0.3 0.78,-0.2 1.44,-0.56 1.99,-1.1 0.55,-0.54 0.98,-1.27 1.28,-2.2 0.3,-0.93 0.45,-2.13 0.45,-3.6l0 -5.91 -9.73 0c-0.98,0 -1.85,0.1 -2.63,0.3 -0.78,0.2 -1.44,0.56 -1.99,1.08 -0.55,0.52 -0.98,1.25 -1.28,2.18 -0.3,0.93 -0.45,2.11 -0.45,3.55zm12.7 13.55l-19.39 0 0 -14.68c0,-2.11 0.31,-4.01 0.92,-5.7 0.61,-1.68 1.4,-3.11 2.37,-4.27 0.96,-1.16 2.04,-2.06 3.23,-2.69 1.19,-0.63 2.37,-0.94 3.55,-0.94l19.39 0 0 14.68c0,2.11 -0.31,4.01 -0.92,5.7 -0.61,1.68 -1.4,3.11 -2.37,4.27 -0.96,1.16 -2.05,2.06 -3.25,2.69 -1.2,0.63 -2.38,0.94 -3.53,0.94zm13.75 -14.68l0 4.25 22.02 0c-0.5,1.11 -1.23,1.86 -2.2,2.26 -0.96,0.39 -2.1,0.59 -3.4,0.59l-16.42 0 0 7.58 19.32 0c1.15,0 2.33,-0.31 3.53,-0.94 1.2,-0.63 2.29,-1.52 3.27,-2.69 0.98,-1.17 1.78,-2.59 2.41,-4.27 0.63,-1.68 0.94,-3.58 0.94,-5.7l0 -4.3 -22.02 0c0.5,-1.08 1.23,-1.81 2.2,-2.2 0.96,-0.39 2.1,-0.59 3.4,-0.59l16.42 0 0 -7.58 -19.32 0c-1.18,0 -2.37,0.31 -3.57,0.94 -1.2,0.63 -2.29,1.52 -3.27,2.69 -0.98,1.17 -1.77,2.59 -2.39,4.27 -0.61,1.68 -0.92,3.58 -0.92,5.7z"/>
  </g>
 </g>
</svg>
